<?xml version="1.0" encoding="iso-8859-1"?>
<!-- Generator: Adobe Illustrator 19.0.0, SVG Export Plug-In . SVG Version: 6.00 Build 0)  -->
<svg xmlns="http://www.w3.org/2000/svg" xmlns:xlink="http://www.w3.org/1999/xlink" version="1.1" id="Capa_1" x="0px" y="0px" viewBox="0 0 480 480" style="enable-background:new 0 0 480 480;" xml:space="preserve" width="512px" height="512px">
<g>
	<g>
		<path d="M456,184h-26.528c-3.347,0.05-6.351-2.048-7.456-5.208c-2.772-8.269-6.119-16.334-10.016-24.136    c-1.459-3.026-0.815-6.648,1.6-8.984l18.744-18.824c9.369-9.372,9.369-24.564,0-33.936l-45.296-45.296    c-9.372-9.369-24.564-9.369-33.936,0L334.328,66.4c-2.335,2.417-5.958,3.062-8.984,1.6c-7.803-3.891-15.868-7.233-24.136-10    c-3.16-1.105-5.258-4.109-5.208-7.456V24c0-13.255-10.745-24-24-24h-64c-13.255,0-24,10.745-24,24v26.544    c0.05,3.347-2.048,6.351-5.208,7.456c-8.269,2.78-16.334,6.135-24.136,10.04c-3.025,1.467-6.651,0.821-8.984-1.6l-18.784-18.784    c-9.372-9.369-24.564-9.369-33.936,0L47.656,92.952c-9.369,9.372-9.369,24.564,0,33.936L66.4,145.672    c2.414,2.336,3.059,5.958,1.6,8.984c-3.891,7.803-7.233,15.868-10,24.136c-1.105,3.16-4.109,5.258-7.456,5.208H24    c-13.255,0-24,10.745-24,24v64c0,13.255,10.745,24,24,24h26.544c3.347-0.05,6.351,2.048,7.456,5.208    c2.78,8.269,6.135,16.334,10.04,24.136c1.459,3.026,0.815,6.648-1.6,8.984l-18.784,18.784c-9.369,9.372-9.369,24.564,0,33.936    l45.296,45.336c9.372,9.369,24.564,9.369,33.936,0l18.784-18.784c2.335-2.417,5.958-3.062,8.984-1.6    c7.803,3.891,15.868,7.233,24.136,10c3.16,1.105,5.258,4.109,5.208,7.456V456c0,13.255,10.745,24,24,24h64    c13.255,0,24-10.745,24-24v-26.528c-0.05-3.347,2.048-6.351,5.208-7.456c8.269-2.772,16.334-6.119,24.136-10.016    c3.026-1.465,6.65-0.819,8.984,1.6l18.824,18.744c9.372,9.369,24.564,9.369,33.936,0l45.296-45.296    c9.369-9.372,9.369-24.564,0-33.936L413.6,334.328c-2.415-2.336-3.059-5.958-1.6-8.984c3.891-7.803,7.233-15.868,10-24.136    c1.105-3.16,4.109-5.258,7.456-5.208H456c13.255,0,24-10.745,24-24v-64C480,194.745,469.255,184,456,184z M464,272    c0,4.418-3.582,8-8,8h-26.544c-10.231-0.051-19.345,6.453-22.624,16.144c-2.529,7.557-5.59,14.924-9.16,22.048    c-4.546,9.184-2.699,20.247,4.584,27.456l18.776,18.784c3.123,3.124,3.123,8.188,0,11.312l-45.296,45.288    c-3.124,3.123-8.188,3.123-11.312,0L345.64,402.24c-7.214-7.274-18.273-9.117-27.456-4.576c-7.124,3.57-14.492,6.631-22.048,9.16    c-9.69,3.283-16.191,12.401-16.136,22.632V456c0,4.418-3.582,8-8,8h-64c-4.418,0-8-3.582-8-8v-26.544    c0.048-10.225-6.451-19.335-16.136-22.616c-7.557-2.529-14.924-5.59-22.048-9.16c-3.265-1.63-6.863-2.479-10.512-2.48    c-6.345,0.023-12.422,2.557-16.904,7.048l-18.832,18.784c-3.124,3.123-8.188,3.123-11.312,0l-45.288-45.296    c-3.123-3.124-3.123-8.188,0-11.312L77.76,345.64c7.278-7.212,9.122-18.273,4.576-27.456c-3.57-7.124-6.631-14.491-9.16-22.048    c-3.283-9.691-12.401-16.191-22.632-16.136H24c-4.418,0-8-3.582-8-8v-64c0-4.418,3.582-8,8-8h26.544    c10.221,0.061,19.335-6.421,22.632-16.096c2.529-7.557,5.59-14.924,9.16-22.048c4.546-9.184,2.699-20.247-4.584-27.456    l-18.784-18.824c-3.123-3.124-3.123-8.188,0-11.312l45.296-45.296c3.124-3.123,8.188-3.123,11.312,0L134.4,77.76    c7.205,7.26,18.244,9.102,27.416,4.576c7.124-3.57,14.492-6.631,22.048-9.16c9.69-3.283,16.191-12.401,16.136-22.632V24    c0-4.418,3.582-8,8-8h64c4.418,0,8,3.582,8,8v26.544c-0.052,10.228,6.448,19.342,16.136,22.624    c7.557,2.529,14.924,5.59,22.048,9.16c9.184,4.544,20.246,2.697,27.456-4.584l18.784-18.776c3.124-3.123,8.188-3.123,11.312,0    l45.296,45.336c3.123,3.124,3.123,8.188,0,11.312L402.24,134.4c-7.26,7.205-9.102,18.244-4.576,27.416    c3.57,7.124,6.631,14.492,9.16,22.048c3.283,9.69,12.401,16.191,22.632,16.136H456c4.418,0,8,3.582,8,8V272z" fill="#7190bf"/>
	</g>
</g>
<g>
	<g>
		<path d="M279.752,240c17.74-13.054,21.538-38.018,8.483-55.757C280.696,173.997,268.721,167.963,256,168v-16c0-4.418-3.582-8-8-8    s-8,3.582-8,8v16h-16v-16c0-4.418-3.582-8-8-8s-8,3.582-8,8v16h-24c-4.418,0-8,3.582-8,8s3.582,8,8,8h16v112h-16    c-4.418,0-8,3.582-8,8s3.582,8,8,8h24v16c0,4.418,3.582,8,8,8s8-3.582,8-8v-16h16v16c0,4.418,3.582,8,8,8s8-3.582,8-8v-16    c22.025,0.063,39.931-17.74,39.995-39.765C296.031,259.515,289.997,247.54,279.752,240z M216,184h40c13.255,0,24,10.745,24,24    s-10.745,24-24,24h-40V184z M256,296h-40v-48h40c13.255,0,24,10.745,24,24S269.255,296,256,296z" fill="#7190bf"/>
	</g>
</g>
<g>
	<g>
		<path d="M240,112c-70.692,0-128,57.308-128,128s57.308,128,128,128c70.658-0.084,127.916-57.342,128-128    C368,169.308,310.692,112,240,112z M240,352c-61.856,0-112-50.144-112-112s50.144-112,112-112    c61.828,0.066,111.934,50.172,112,112C352,301.856,301.856,352,240,352z" fill="#7190bf"/>
	</g>
</g>
<g>
</g>
<g>
</g>
<g>
</g>
<g>
</g>
<g>
</g>
<g>
</g>
<g>
</g>
<g>
</g>
<g>
</g>
<g>
</g>
<g>
</g>
<g>
</g>
<g>
</g>
<g>
</g>
<g>
</g>
</svg>
